# xmcd CD database file
#
# Track frame offsets:
#	150
#	25384
#	45916
#	70189
#	80662
#	98376
#	119334
#	130503
#	153577
#	174940
#	191335
#	212863
#	237426
#
# Disc length: 3274 seconds
#
# Revision: 0
# Processed by: cddbd v1.5.2PL0 Copyright (c) Steve Scherf et al.
# Submitted via: CDex 1.51
#
DISCID=a10cc80d
DTITLE=Paula Oliveira and Bernardo Moreira - Fado Roubado
DYEAR=2007
DGENRE=Jazz
TTITLE0=Que Amor Não Me Engana
TTITLE1=Há uma Música do Povo
TTITLE2=Estrela da Tarde
TTITLE3=Horn Please - Gaivota
TTITLE4=Índios da Meia Praia
TTITLE5=Quando
TTITLE6=Quem à Janela
TTITLE7=Ardora
TTITLE8=Canto Franciscano
TTITLE9=Outono
TTITLE10=Serenata do Tejo - Prólogo
TTITLE11=Canções do Rio Profundo
TTITLE12=Escuto
EXTD=YEAR: 2007
EXTT0=
EXTT1=
EXTT2=
EXTT3=
EXTT4=
EXTT5=
EXTT6=
EXTT7=
EXTT8=
EXTT9=
EXTT10=
EXTT11=
EXTT12=
PLAYORDER=
